# xmcd
#
# Track frame offsets:
#	150
#	13784
#	29528
#	44008
#	58673
#	70102
#	84008
#	97056
#	112418
#	124663
#	139100
#	153718
#	162874
#	178704
#	193911
#	209332
#	221593
#	233088
#	244347
#	259448
#	276044
#	294225
#	302744
#	317593
#	332375
#	342050
#
# Disc length: 4732 seconds
#
# Revision: 0
# Processed by: cddbd v1.5.2PL0 Copyright (c) Steve Scherf et al.
# Submitted via: audiograbber 1.83.01
#
DISCID=89127a1a
DTITLE=Various Artist - Русский Танцевальный Хит vol12
DYEAR=1900
DGENRE=
TTITLE0=MC Вспышкин - Эффект достигнут
TTITLE1=Reflex - Танцы
TTITLE2=Банда Андрюха - До утра
TTITLE3=Жасмин - Индийское диско
TTITLE4=Иракли - Капля абсента (remix)
TTITLE5=П. Нарцисс - Люди говорят
TTITLE6=Корни - 25-й этаж (RDV DJ remix)
TTITLE7=Глюкоза - Юра
TTITLE8=Звезды дискотек - О тебе, весна
TTITLE9=Отпетые мошенники - Мелодия лета (feat. C.C. Catch)
TTITLE10=Пропаганда - Стихи в метро
TTITLE11=Чай вдвоем - Ты не одна (Kolya Smart remix)
TTITLE12=Д. Гурцкая - Раненая птица
TTITLE13=Unknown - Иван Васильевич меняет профессию. Часть 1
TTITLE14=Алсу - Небо (Triplex electromix)
TTITLE15=Руки вверх - Прошу не молчи
TTITLE16=Звери - Районы кварталы (Niko Tin remix)
TTITLE17=Фабрика и Иванушки - За горизонт
TTITLE18=Валерия - Маленький самолет (remix)
TTITLE19=Слава - Классный
TTITLE20=Вирус - Weekend
TTITLE21=Авария - Если хочешь остаться (remix)
TTITLE22=Цветомузыка - Три аккорда
TTITLE23=А-студио - Улетаю
TTITLE24=Шпильки - Сам ты Наташа (remix)
TTITLE25=DJ List vs. DJ Aqueel - Tu tu wai hai
EXTD=
EXTT0=
EXTT1=
EXTT2=
EXTT3=
EXTT4=
EXTT5=
EXTT6=
EXTT7=
EXTT8=
EXTT9=
EXTT10=
EXTT11=
EXTT12=
EXTT13=
EXTT14=
EXTT15=
EXTT16=
EXTT17=
EXTT18=
EXTT19=
EXTT20=
EXTT21=
EXTT22=
EXTT23=
EXTT24=
EXTT25=
PLAYORDER=
